<svg id="Layer_1" data-name="Layer 1" xmlns="http://www.w3.org/2000/svg" viewBox="0 0 50 44"><defs><style>.cls-1{fill:#e73137;}</style></defs><title>WC_IMG_1745</title><path class="cls-1" d="M4.54,40.31A19,19,0,0,1,0,43.88S3.09,44,7.41,44A36.52,36.52,0,0,1,4.54,40.31Z"/><path class="cls-1" d="M16.71,41a25,25,0,0,1-3.54,3c2.15,0,4.39-.08,6.58-0.18A23.06,23.06,0,0,1,16.71,41Z"/><path class="cls-1" d="M14.87,38.85A47.73,47.73,0,0,1,10.53,32,37.25,37.25,0,0,1,6.11,38.6a37.36,37.36,0,0,0,3.6,4.7A25.35,25.35,0,0,0,14.87,38.85Z"/><path class="cls-1" d="M29,8.63c-0.38,5.26-2.24,20.77-10.83,30.73a23,23,0,0,0,4.39,3.92C34.92,34.44,37.46,15.12,38,8.63H29Z"/><path class="cls-1" d="M16.34,37c7.14-9.33,9.08-22.52,9.6-28.4h-9A63.45,63.45,0,0,1,11.8,29.39,50.87,50.87,0,0,0,16.34,37Z"/><path class="cls-1" d="M41,8.63c-0.26,4.64-2,24.67-13.19,34.6a27.9,27.9,0,0,0,5.1-1C47.67,37.39,50,8.63,50,8.63H41Z"/><path class="cls-1" d="M41.06,8.88c-0.41,4.54-2.82,24.8-14,34.44a26.34,26.34,0,0,0,5-.82C46.53,38.13,49.8,9.18,49.8,9.18Z"/><ellipse class="cls-1" cx="21.4" cy="3.38" rx="3.39" ry="3.38"/><ellipse class="cls-1" cx="33.44" cy="3.38" rx="3.39" ry="3.38"/><ellipse class="cls-1" cx="45.48" cy="3.38" rx="3.39" ry="3.38"/></svg>