<?xml version="1.0" encoding="UTF-8" standalone="no"?>
<svg width="40px" height="36px" viewBox="0 0 40 36" version="1.1" xmlns="http://www.w3.org/2000/svg" xmlns:xlink="http://www.w3.org/1999/xlink">
    <!-- Generator: Sketch 40.1 (33804) - http://www.bohemiancoding.com/sketch -->
    <title>icon-white</title>
    <desc>Created with Sketch.</desc>
    <defs></defs>
    <g id="Page-1" stroke="none" stroke-width="1" fill="none" fill-rule="evenodd">
        <g id="icon-white" fill="#FFFFFF">
            <g id="Page-1">
                <g id="icon">
                    <path d="M3.632,32.248 C2.57394398,33.3795185 1.34913018,34.342643 -1.05471187e-15,35.104 C-1.05471187e-15,35.104 2.472,35.2 5.928,35.2 C5.10040926,34.266043 4.3335052,33.2800235 3.632,32.248 L3.632,32.248 L3.632,32.248 Z" id="Shape"></path>
                    <path d="M13.368,32.8 C12.5004454,33.6860667 11.5523626,34.4895267 10.536,35.2 C12.256,35.2 14.048,35.136 15.8,35.056 C14.9232301,34.3785593 14.1092736,33.6235076 13.368,32.8 L13.368,32.8 L13.368,32.8 Z" id="Shape"></path>
                    <path d="M11.896,31.08 C10.5853094,29.3551318 9.42378528,27.5218505 8.424,25.6 C7.43689309,27.4810002 6.25148841,29.2510614 4.888,30.88 C5.74702661,32.2075437 6.7100495,33.4648236 7.768,34.64 C9.29793848,33.6445106 10.6864786,32.4470293 11.896,31.08 L11.896,31.08 L11.896,31.08 Z" id="Shape"></path>
                    <path d="M23.2,6.904 C22.896,11.112 21.408,23.52 14.536,31.488 C15.5675396,32.6794184 16.7478673,33.7333785 18.048,34.624 C27.936,27.552 29.968,12.096 30.4,6.904 L23.2,6.904 L23.2,6.904 L23.2,6.904 Z" id="Shape"></path>
                    <path d="M13.072,29.6 C18.784,22.136 20.336,11.584 20.752,6.88 L13.552,6.88 C13.1336122,12.6169414 11.7431438,18.2410349 9.44,23.512 C10.4712743,25.6431175 11.6865506,27.6801775 13.072,29.6 L13.072,29.6 L13.072,29.6 Z" id="Shape"></path>
                    <path d="M32.8,6.904 C32.592,10.616 31.2,26.64 22.248,34.584 C23.6299287,34.4448581 24.9958532,34.1770298 26.328,33.784 C38.136,29.912 40,6.904 40,6.904 L32.8,6.904 L32.8,6.904 L32.8,6.904 Z" id="Shape"></path>
                    <path d="M32.848,7.104 C32.52,10.736 30.592,26.944 21.648,34.656 C22.9993158,34.5663802 24.338845,34.3466974 25.648,34 C37.224,30.504 39.84,7.344 39.84,7.344 L32.848,7.104 L32.848,7.104 Z" id="Shape"></path>
                    <ellipse id="Oval" cx="17.12" cy="2.704" rx="2.712" ry="2.704"></ellipse>
                    <ellipse id="Oval" cx="26.752" cy="2.704" rx="2.712" ry="2.704"></ellipse>
                    <ellipse id="Oval" cx="36.384" cy="2.704" rx="2.712" ry="2.704"></ellipse>
                </g>
            </g>
        </g>
    </g>
</svg>